<svg version="1.1" xmlns:sketch="http://www.bohemiancoding.com/sketch/ns" xmlns="http://www.w3.org/2000/svg" xmlns:xlink="http://www.w3.org/1999/xlink" x="0px" y="0px" viewBox="0 0 102 40" enable-background="new 0 0 102 40" xml:space="preserve" width="102px" height="40px">
<title>SMALL LOGO</title>
<desc>Created with Sketch.</desc>
<g id="Page-1" sketch:type="MSPage">
<g id="SMALL-LOGO" sketch:type="MSArtboardGroup">
<g id="Group-copy-11-_x2B_-Group" sketch:type="MSLayerGroup">
<g id="Group-copy-11" transform="translate(23.000000, 15.000000)" sketch:type="MSShapeGroup">
<g id="A" transform="translate(-0.493927, 0.208333)">
<path id="Path" fill="#fff" d="M0.2,9.8h1.7c0.2,0,0.3-0.2,0.4-0.4l0.4-1h3.9l0.4,1c0.1,0.3,0.2,0.4,0.4,0.4h1.7
						c0.2,0,0.3-0.2,0.2-0.4L5,0.2C4.9,0.1,4.8,0,4.7,0H4.5C4.5,0,4.4,0.1,4.3,0.2L0,9.4C-0.1,9.6,0.1,9.8,0.2,9.8z M3.3,6.5
						l1.3-2.5l1.3,2.5H3.3z"/>
</g>
<path id="Y" fill="#fff" d="M26.8,9.8c0,0.1,0.1,0.2,0.2,0.2h1.7c0.2,0,0.3-0.1,0.4-0.2V5.2l3.1-4.6c0.1-0.2,0-0.4-0.2-0.4
					h-1.9c-0.1,0-0.2,0.1-0.2,0.2l-2.1,2.7l-1.9-2.7c0-0.1-0.1-0.2-0.2-0.2h-1.9c-0.2,0-0.3,0.2-0.2,0.4l3.1,4.6V9.8z"/>
<path id="R" fill="#fff" d="M48,9.8c0,0.1,0.1,0.2,0.2,0.2h1.9c0,0,0.2-0.1,0.2-0.2V6.2h1l1.9,3.5c0,0.1,0.1,0.2,0.2,0.2h1.9
					c0.3,0,0.4-0.2,0.2-0.4L53.6,6c1.2-0.5,2.1-1.5,2.1-2.7c0-1.8-1.4-3.1-3.1-3.1h-4.3c-0.1,0-0.2,0.1-0.2,0.2V9.8z M50.3,4.4V2.3
					h1.9c0.6,0,1,0.5,1,1c0,0.5-0.5,1-1,1H50.3z"/>
</g>
<g id="Group" sketch:type="MSShapeGroup">
<g id="Rectangle-3">
<path fill="#fff" d="M99,3v34H3V3H99 M102,0H0v40h102V0L102,0z"/>
</g>
</g>
</g>
</g>
</g>
</svg>